<svg width="18" height="15" viewBox="0 0 18 15" fill="none" xmlns="http://www.w3.org/2000/svg">
<path fill-rule="evenodd" clip-rule="evenodd" d="M12.6592 0C11.0456 0 9.63274 0.693914 8.75206 1.86685C7.87139 0.693914 6.45855 0 4.84489 0C2.17038 0.00301456 0.00301456 2.17038 0 4.84489C0 10.3149 8.11051 14.7425 8.4559 14.9254C8.64081 15.0249 8.86331 15.0249 9.04823 14.9254C9.39362 14.7425 17.5041 10.3149 17.5041 4.84489C17.5011 2.17038 15.3337 0.00301456 12.6592 0ZM8.75206 13.6595C7.32516 12.828 1.25029 9.04041 1.25029 4.84489C1.25288 2.86072 2.86072 1.25288 4.84489 1.25029C6.36478 1.25029 7.64086 2.05986 8.1738 3.36017C8.27013 3.59467 8.49855 3.74778 8.75206 3.74778C9.00558 3.74778 9.234 3.59467 9.33032 3.36017C9.86326 2.05752 11.1393 1.25029 12.6592 1.25029C14.6434 1.25288 16.2512 2.86072 16.2538 4.84489C16.2538 9.03416 10.1774 12.8272 8.75206 13.6595Z" fill="white"/>
</svg>
