<svg width="17" height="17" viewBox="0 0 17 17" fill="none" xmlns="http://www.w3.org/2000/svg">
<path fill-rule="evenodd" clip-rule="evenodd" d="M16.8517 3.37365C16.7321 3.23048 16.5551 3.14776 16.3685 3.14779H3.67347L3.28865 1.03405C3.17988 0.435339 2.65851 8.78976e-05 2.05 0H0.629558C0.281863 0 0 0.281863 0 0.629558C0 0.977253 0.281863 1.25912 0.629558 1.25912H2.04606L4.0575 12.2992C4.11675 12.6266 4.26145 12.9326 4.47695 13.1861C3.6514 13.9572 3.5427 15.2277 4.22526 16.1278C4.90782 17.0279 6.16053 17.266 7.12575 16.6791C8.09098 16.0923 8.45603 14.8705 7.97099 13.8503H11.5453C11.4045 14.1451 11.3316 14.4678 11.332 14.7946C11.332 16.0116 12.3186 16.9981 13.5355 16.9981C14.7524 16.9981 15.739 16.0116 15.739 14.7946C15.739 13.5777 14.7524 12.5912 13.5355 12.5912H5.91549C5.61123 12.5911 5.35054 12.3735 5.29616 12.0741L5.0467 10.7025H14.1753C15.0881 10.7024 15.8701 10.0495 16.0333 9.15142L16.9902 3.88988C17.023 3.70577 16.9722 3.51661 16.8517 3.37365ZM6.92514 14.7946C6.92514 15.3162 6.50235 15.739 5.9808 15.739C5.45926 15.739 5.03647 15.3162 5.03647 14.7946C5.03647 14.2731 5.45926 13.8503 5.9808 13.8503C6.50235 13.8503 6.92514 14.2731 6.92514 14.7946ZM14.4798 14.7946C14.4798 15.3162 14.057 15.739 13.5355 15.739C13.014 15.739 12.5912 15.3162 12.5912 14.7946C12.5912 14.2731 13.014 13.8503 13.5355 13.8503C14.057 13.8503 14.4798 14.2731 14.4798 14.7946ZM14.7946 8.92635C14.7401 9.22658 14.4781 9.44447 14.1729 9.44337H4.81769L3.90247 4.40691H15.6138L14.7946 8.92635Z" fill="white"/>
</svg>
