<svg width="21" height="18" viewBox="0 0 21 18" fill="none" xmlns="http://www.w3.org/2000/svg">
<path fill-rule="evenodd" clip-rule="evenodd" d="M20.1917 2.71344C20.0756 2.43316 19.8022 2.25038 19.4989 2.25032H16.6461C15.8348 0.87007 14.3593 0.0161571 12.7584 0.000366203C11.5738 -0.0151717 10.433 0.447897 9.59438 1.28472C8.73128 2.13171 8.24627 3.29101 8.2491 4.50027V5.0712C4.4748 4.0756 1.38768 1.00535 1.35487 0.972534C1.14943 0.765281 0.842433 0.696007 0.567904 0.794958C0.293376 0.893909 0.10117 1.14312 0.0752036 1.43377C-0.328851 5.914 0.972373 8.91206 2.13766 10.638C2.70585 11.4912 3.39706 12.2557 4.18887 12.9067C2.76109 14.5501 0.513007 15.4135 0.488633 15.4229C0.274237 15.5032 0.108261 15.677 0.037949 15.8949C-0.0323628 16.1127 0.0006914 16.3508 0.127702 16.5413C0.198014 16.6463 0.479258 17.0147 1.16643 17.3588C2.01579 17.7844 3.13795 18 4.49918 18C11.1244 18 16.6602 12.8982 17.2255 6.33399L20.0295 3.53092C20.2439 3.31631 20.3079 2.99365 20.1917 2.71344ZM15.973 5.47057C15.8444 5.59946 15.7671 5.77074 15.7555 5.95243C15.374 11.867 10.4316 16.5 4.49918 16.5C3.5092 16.5 2.81171 16.3688 2.32235 16.2113C3.40139 15.6254 4.90604 14.6176 5.87352 13.1663C5.9883 12.9939 6.02661 12.7816 5.97938 12.5799C5.93214 12.3782 5.80357 12.205 5.62415 12.1014C5.58009 12.0761 1.50767 9.63205 1.49924 3.10155C2.99921 4.32028 5.74134 6.21118 8.8744 6.73804C9.09173 6.77468 9.31418 6.71387 9.48265 6.57177C9.65112 6.42966 9.74856 6.22064 9.74907 6.00024V4.50027C9.74737 3.69205 10.0719 2.91733 10.6491 2.35157C11.2024 1.79719 11.9564 1.49017 12.7396 1.50034C13.9265 1.51534 15.0355 2.23907 15.4996 3.30124C15.6191 3.57412 15.8888 3.75037 16.1868 3.75029H17.6867L15.973 5.47057Z" fill="#9EB8A8"/>
</svg>
